#!OML:ASF I:\golf\golf\golf 2\Subject 1\2002-09-07\Subject1.ASF
:FULLY-SPECIFIED
:DEGREES
373
root -10.1965 18.086 5.09008 -153.351 75.6667 -169.395
lowerback 3.23572 1.66135 0.219345
upperback 5.28614 2.33889 4.59169
thorax 3.46057 1.18087 4.6341
lowerneck -11.4503 5.17457 6.38585
upperneck 37.226 10.7551 -6.25931
head 15.8049 5.23899 -1.82738
rclavicle 3.18055e-015 1.59028e-014
rhumerus -11.7573 25.2698 -100.082
rradius 37.7936
rwrist -43.5387
rhand -30.338 -11.3903
rfingers 7.12502
rthumb -3.64387 -41.3389
lclavicle 3.18055e-015 1.59028e-014
lhumerus -8.23773 -36.8966 106.78
lradius 33.9814
lwrist 45.5612
lhand -3.34549 57.4644
lfingers 7.12502
lthumb 22.3824 86.1877
rfemur -24.8184 -6.7964 15.4344
rtibia 23.4378
rfoot -7.14643 -14.7858
rtoes -0.780676
lfemur -30.1164 0.120595 -12.834
ltibia 22.6435
lfoot -7.76356 -13.1148
ltoes -5.73971
374
root -10.195 18.0841 5.08735 -153.369 75.6339 -169.397
lowerback 3.22459 1.66676 0.29735
upperback 5.29626 2.34662 4.56699
thorax 3.48051 1.18777 4.56487
lowerneck -11.4296 5.20735 6.46314
upperneck 37.1223 10.8024 -6.36083
head 15.7662 5.25592 -1.87617
rclavicle -1.59028e-014 3.57812e-014
rhumerus -11.7363 25.2076 -100.097
rradius 37.8009
rwrist -43.5749
rhand -30.4263 -11.3831
rfingers 7.12502
rthumb -3.72911 -41.3302
lclavicle -1.59028e-014 3.57812e-014
lhumerus -8.24817 -36.9467 106.769
lradius 33.9955
lwrist 45.5222
lhand -3.28538 57.448
lfingers 7.12502
lthumb 22.4401 86.1644
rfemur -24.7568 -6.82115 15.4281
rtibia 23.3873
rfoot -7.17294 -14.7567
rtoes -0.521719
lfemur -30.125 0.114154 -12.8362
ltibia 22.6923
lfoot -7.81651 -13.1393
ltoes -5.97286
375
root -10.1939 18.0831 5.08534 -153.241 75.6061 -169.261
lowerback 3.21183 1.6582 0.366639
upperback 5.30175 2.33591 4.57301
thorax 3.49657 1.18495 4.53287
lowerneck -11.4409 5.26213 6.44012
upperneck 37.0429 10.8939 -6.41427
head 15.741 5.28222 -1.87801
rclavicle -8.74653e-015 -1.51076e-014
rhumerus -11.7159 25.227 -100.094
rradius 37.7607
rwrist -43.5171
rhand -30.3925 -11.3489
rfingers 7.12502
rthumb -3.69649 -41.2966
lclavicle -8.74653e-015 -1.51076e-014
lhumerus -8.24726 -36.9922 106.748
lradius 34.027
lwrist 45.5936
lhand -3.29064 57.4695
lfingers 7.12502
lthumb 22.435 86.1865
rfemur -24.7251 -6.81444 15.4545
rtibia 23.3559
rfoot -7.23303 -14.7381
rtoes -0.0788773
lfemur -30.1394 0.154712 -12.8198
ltibia 22.7267
lfoot -7.91025 -13.1487
ltoes -6.62102
376
root -10.1934 18.0833 5.0853 -152.947 75.6134 -168.971
lowerback 3.20399 1.66252 0.411288
upperback 5.28474 2.34217 4.59609
thorax 3.48356 1.18968 4.53149
lowerneck -11.4361 5.31623 6.38899
upperneck 36.9934 10.9945 -6.44785
head 15.7242 5.31258 -1.86535
rclavicle -2.06736e-014 -2.22639e-014
rhumerus -11.7266 25.2493 -100.132
rradius 37.7187
rwrist -43.5641
rhand -30.4986 -11.3571
rfingers 7.12502
rthumb -3.79892 -41.303
lclavicle -2.06736e-014 -2.22639e-014
lhumerus -8.27104 -36.9802 106.756
lradius 34.0283
lwrist 45.655
lhand -3.3581 57.4421
lfingers 7.12502
lthumb 22.3702 86.1669
rfemur -24.742 -6.71233 15.5083
rtibia 23.3476
rfoot -7.19911 -14.8419
rtoes 0.241433
lfemur -30.1477 0.232785 -12.7675
ltibia 22.7324
lfoot -7.93968 -13.1589
ltoes -6.84875
377
root -10.1923 18.0839 5.08569 -152.891 75.6828 -168.927
lowerback 3.17992 1.68528 0.365239
upperback 5.28449 2.37053 4.57839
thorax 3.49362 1.20182 4.53968
lowerneck -11.464 5.37368 6.40494
upperneck 36.9477 11.0686 -6.46134
head 15.7177 5.34114 -1.85957
rclavicle 1.35174e-014 -5.56597e-014
rhumerus -11.7184 25.3259 -100.185
rradius 37.7574
rwrist -43.8703
rhand -30.7837 -11.3884
rfingers 7.12502
rthumb -4.07425 -41.3292
lclavicle 1.35174e-014 -5.56597e-014
lhumerus -8.2623 -37.0205 106.714
lradius 34.0278
lwrist 45.7483
lhand -3.33528 57.4055
lfingers 7.12502
lthumb 22.3922 86.1277
rfemur -24.7634 -6.68674 15.4974
rtibia 23.3338
rfoot -7.14443 -14.8337
rtoes 0.379208
lfemur -30.1423 0.292745 -12.7869
ltibia 22.7304
lfoot -7.91903 -13.1446
ltoes -6.74494
378
root -10.1913 18.0846 5.08543 -153.045 75.7318 -169.086
lowerback 3.16863 1.68384 0.263236
upperback 5.28508 2.36666 4.57736
thorax 3.49716 1.19574 4.59671
lowerneck -11.4638 5.44739 6.42107
upperneck 36.8868 11.1731 -6.49228
head 15.7015 5.38117 -1.85673
rclavicle -3.18055e-014 -7.55382e-014
rhumerus -11.7651 25.5172 -100.174
rradius 37.8424
rwrist -44.1267
rhand -30.9032 -11.3586
rfingers 7.12502
rthumb -4.18971 -41.2972
lclavicle -3.18055e-014 -7.55382e-014
lhumerus -8.24743 -36.9583 106.702
lradius 34.0303
lwrist 45.7641
lhand -3.16685 57.4274
lfingers 7.12502
lthumb 22.5538 86.13
rfemur -24.7565 -6.74758 15.4556
rtibia 23.3089
rfoot -7.13778 -14.7233
rtoes 0.0461529
lfemur -30.1273 0.295063 -12.8451
ltibia 22.7246
lfoot -7.93816 -13.1104
ltoes -6.97349
379
root -10.1907 18.0863 5.08457 -152.956 75.7029 -168.988
lowerback 3.18234 1.65796 0.26235
upperback 5.2706 2.3332 4.62085
thorax 3.47537 1.17899 4.64201
lowerneck -11.4281 5.51789 6.41552
upperneck 36.8359 11.3083 -6.57448
head 15.6881 5.42766 -1.86739
rclavicle -3.10104e-014 -4.45278e-014
rhumerus -11.8369 25.6787 -100.149
rradius 37.8804
rwrist -44.1507
rhand -30.8775 -11.3643
rfingers 7.12502
rthumb -4.16482 -41.3033
lclavicle -3.10104e-014 -4.45278e-014
lhumerus -8.24726 -36.8292 106.733
lradius 34.0201
lwrist 45.7122
lhand -3.13968 57.4695
lfingers 7.12502
lthumb 22.5799 86.169
rfemur -24.7319 -6.70335 15.48
rtibia 23.2925
rfoot -7.1208 -14.7774
rtoes -0.279039
lfemur -30.1176 0.288737 -12.806
ltibia 22.7138
lfoot -7.91289 -13.1552
ltoes -6.77144
380
root -10.1894 18.0881 5.08349 -152.74 75.655 -168.752
lowerback 3.19467 1.65453 0.338549
upperback 5.26298 2.33057 4.64371
thorax 3.46264 1.18077 4.6222
lowerneck -11.4847 5.55609 6.395
upperneck 36.8608 11.3781 -6.5818
head 15.7205 5.45109 -1.85215
rclavicle -1.59028e-015 2.06736e-014
rhumerus -11.8632 25.6921 -100.145
rradius 37.891
rwrist -44.0621
rhand -30.7869 -11.4093
rfingers 7.12502
rthumb -4.07732 -41.3501
lclavicle -1.59028e-015 2.06736e-014
lhumerus -8.26698 -36.8329 106.741
lradius 34.0083
lwrist 45.6704
lhand -3.19288 57.5249
lfingers 7.12502
lthumb 22.5288 86.2306
rfemur -24.6905 -6.64454 15.5397
rtibia 23.2724
rfoot -7.13888 -14.8657
rtoes -0.266698
lfemur -30.1072 0.323447 -12.7385
ltibia 22.7171
lfoot -7.83773 -13.249
ltoes -6.17733
381
root -10.1883 18.0883 5.08303 -152.644 75.6139 -168.616
lowerback 3.2252 1.64184 0.368667
upperback 5.2672 2.31574 4.66573
thorax 3.45135 1.1748 4.62737
lowerneck -11.614 5.58395 6.26831
upperneck 36.936 11.4143 -6.46531
head 15.7732 5.4579 -1.76957
rclavicle 4.53229e-014 2.14687e-014
rhumerus -11.8833 25.7498 -100.164
rradius 37.9285
rwrist -44.1636
rhand -30.8489 -11.4526
rfingers 7.12502
rthumb -4.1372 -41.3921
lclavicle 4.53229e-014 2.14687e-014
lhumerus -8.28571 -36.8427 106.738
lradius 34.0387
lwrist 45.7036
lhand -3.23235 57.6201
lfingers 7.12502
lthumb 22.491 86.3303
rfemur -24.6286 -6.67404 15.5969
rtibia 23.2401
rfoot -7.13289 -14.8595
rtoes -0.576999
lfemur -30.0783 0.36226 -12.7116
ltibia 22.7357
lfoot -7.87074 -13.2882
ltoes -6.31937
382
root -10.1875 18.0877 5.08245 -152.479 75.5686 -168.421
lowerback 3.2369 1.61486 0.405167
upperback 5.27069 2.28154 4.70662
thorax 3.45099 1.15911 4.64965
lowerneck -11.5811 5.63842 6.16107
upperneck 36.8567 11.497 -6.43427
head 15.7225 5.48143 -1.72431
rclavicle -3.81667e-014 -5.96354e-014
rhumerus -11.9165 25.8988 -100.187
rradius 37.9839
rwrist -44.4443
rhand -31.0654 -11.4474
rfingers 7.12502
rthumb -4.34632 -41.3828
lclavicle -3.81667e-014 -5.96354e-014
lhumerus -8.28002 -36.7495 106.754
lradius 34.0506
lwrist 45.6871
lhand -3.23183 57.6514
lfingers 7.12502
lthumb 22.4915 86.3616
rfemur -24.5884 -6.74814 15.6804
rtibia 23.2143
rfoot -7.09709 -14.7955
rtoes -0.89895
lfemur -30.0572 0.323962 -12.6401
ltibia 22.7484
lfoot -7.95455 -13.2351
ltoes -6.76299
383
root -10.1866 18.0874 5.08147 -152.517 75.5634 -168.465
lowerback 3.20952 1.63337 0.409035
upperback 5.26898 2.30496 4.68882
thorax 3.46354 1.17078 4.6296
lowerneck -11.4209 5.68329 6.26689
upperneck 36.6206 11.549 -6.57399
head 15.5915 5.50449 -1.79834
rclavicle 4.05521e-014 4.13472e-014
rhumerus -11.925 25.9104 -100.196
rradius 38.0184
rwrist -44.598
rhand -31.1742 -11.4094
rfingers 7.12502
rthumb -4.4513 -41.3426
lclavicle 4.05521e-014 4.13472e-014
lhumerus -8.29614 -36.7944 106.763
lradius 34.043
lwrist 45.6271
lhand -3.22836 57.627
lfingers 7.12502
lthumb 22.4948 86.3368
rfemur -24.5804 -6.80024 15.6648
rtibia 23.1993
rfoot -7.18983 -14.7021
rtoes -0.287811
lfemur -30.0671 0.272417 -12.632
ltibia 22.7627
lfoot -7.95562 -13.2052
ltoes -6.61223
384
root -10.1857 18.0888 5.08026 -152.647 75.5631 -168.608
lowerback 3.18835 1.66104 0.404393
upperback 5.26305 2.34008 4.63481
thorax 3.46825 1.18817 4.57585
lowerneck -11.4501 5.70332 6.37417
upperneck 36.5415 11.5492 -6.62935
head 15.572 5.50946 -1.83901
rclavicle 4.53229e-014 0
rhumerus -11.9087 25.8085 -100.236
rradius 38.0138
rwrist -44.6079
rhand -31.2191 -11.4182
rfingers 7.12502
rthumb -4.49469 -41.3506
lclavicle 4.53229e-014 0
lhumerus -8.34563 -36.941 106.728
lradius 34.0785
lwrist 45.6596
lhand -3.29711 57.653
lfingers 7.12502
lthumb 22.4288 86.3708
rfemur -24.5718 -6.79312 15.6084
rtibia 23.1892
rfoot -7.30066 -14.6741
rtoes 0.901629
lfemur -30.0845 0.285167 -12.6744
ltibia 22.7837
lfoot -7.938 -13.2575
ltoes -6.45733
385
root -10.185 18.0891 5.08086 -152.535 75.5339 -168.514
lowerback 3.16732 1.67481 0.430105
upperback 5.24999 2.35772 4.61897
thorax 3.4666 1.19789 4.54492
lowerneck -11.5614 5.72344 6.35525
upperneck 36.5687 11.5527 -6.56101
head 15.6048 5.51133 -1.80218
rclavicle -5.24792e-014 -3.97569e-014
rhumerus -11.8445 25.6517 -100.265
rradius 37.9131
rwrist -44.4481
rhand -31.0874 -11.4557
rfingers 7.12502
rthumb -4.36751 -41.3906
lclavicle -5.24792e-014 -3.97569e-014
lhumerus -8.37088 -37.0193 106.691
lradius 34.0881
lwrist 45.7505
lhand -3.26535 57.7123
lfingers 7.12502
lthumb 22.4593 86.4264
rfemur -24.5958 -6.81806 15.6601
rtibia 23.2138
rfoot -7.2626 -14.6795
rtoes 1.12828
lfemur -30.102 0.373981 -12.6638
ltibia 22.7736
lfoot -7.93679 -13.3528
ltoes -6.70554
386
root -10.1833 18.0872 5.08181 -152.489 75.5845 -168.471
lowerback 3.14628 1.71336 0.404061
upperback 5.24905 2.40755 4.59638
thorax 3.47353 1.22166 4.53638
lowerneck -11.5788 5.7386 6.37569
upperneck 36.5391 11.5609 -6.55939
head 15.5964 5.51646 -1.80283
rclavicle 0 -2.94201e-014
rhumerus -11.7955 25.5259 -100.267
rradius 37.8523
rwrist -44.337
rhand -30.9372 -11.5079
rfingers 7.12502
rthumb -4.22249 -41.4458
lclavicle 0 -2.94201e-014
lhumerus -8.38624 -37.1509 106.663
lradius 34.0952
lwrist 45.8909
lhand -3.20799 57.7605
lfingers 7.12502
lthumb 22.5143 86.4679
rfemur -24.6405 -6.8679 15.6884
rtibia 23.2819
rfoot -7.16275 -14.6473
rtoes 0.0586421
lfemur -30.0762 0.545988 -12.7156
ltibia 22.7368
lfoot -7.89424 -13.4624
ltoes -6.56694
